<svg xmlns="http://www.w3.org/2000/svg" width="1086.914" height="1086.913" viewBox="0 0 1086.914 1086.913">
  <g id="alto_sx" data-name="alto sx" transform="translate(0 1086.915) rotate(-90)" opacity="0.9">
    <path id="Tracciato_1" data-name="Tracciato 1" d="M475.189,468.812h1080.18v1080.18a6.734,6.734,0,0,1-13.467,0h0V482.278H475.189a6.733,6.733,0,1,1,0-13.466Z" transform="translate(-468.454 -468.812)" fill="#fff"/>
    <path id="Tracciato_2" data-name="Tracciato 2" d="M1321.914,944.626h786.669a6.733,6.733,0,0,1,0,13.467H1321.914a6.733,6.733,0,1,1,0-13.467Z" transform="translate(-1213.622 -887.557)" fill="#fff"/>
    <path id="Tracciato_3" data-name="Tracciato 3" d="M8969.991,1966.34a5.629,5.629,0,0,1,5.629,5.629v786.67a5.629,5.629,0,0,1-11.258,0v-786.67A5.629,5.629,0,0,1,8969.991,1966.34Z" transform="translate(-7945.366 -1786.727)" fill="#fff"/>
    <path id="Tracciato_4" data-name="Tracciato 4" d="M8777.5,2247.887l-.008-.007a0,0,0,0,0,0,0Z" transform="translate(-7780.905 -2034.498)" fill="#fff"/>
    <path id="Tracciato_5" data-name="Tracciato 5" d="M8252.86,2027.084c.851-.916,1.746-1.808,2.668-2.667a42.822,42.822,0,0,1,33.3-10.943,53.4,53.4,0,0,1,7.18,1.158c14.1,3.268,24.89,12.221,29.151,24.823a36.215,36.215,0,0,1-9.7,38.15,29.467,29.467,0,0,1-22.539,7.55,37.47,37.47,0,0,1-5.28-.83c-9.661-2.232-17.158-8.418-20.168-17.193a25.335,25.335,0,0,1,6.763-26.818,21.517,21.517,0,0,1,19.533-5.164,21.29,21.29,0,0,1,10.788,6.261,6.021,6.021,0,0,1-8.812,8.206,9.266,9.266,0,0,0-4.721-2.742,9.487,9.487,0,0,0-8.606,2.277,13.356,13.356,0,0,0-3.925,6.756,13.223,13.223,0,0,0,.368,7.308c1.632,4.678,5.522,7.96,11.446,9.37a25.31,25.31,0,0,0,3.628.567,17.415,17.415,0,0,0,13.337-4.38,24.166,24.166,0,0,0,6.486-25.454c-2.9-8.548-9.988-14.5-20.326-16.937a42.9,42.9,0,0,0-5.727-.921,30.368,30.368,0,0,0-23.967,7.777c-.715.664-1.4,1.346-2.061,2.06a35.051,35.051,0,0,0-8.6,16.01,36.877,36.877,0,0,0,.207,17.239,39.176,39.176,0,0,0,25.082,27.76l1.519.535.05.02a62.926,62.926,0,0,0,8.075,2.414,119.37,119.37,0,0,0,30.433,2.661h-.015a90.925,90.925,0,0,1,24.863,2.107c26.606,6.21,37.808,23.435,39.4,26.111.387.536.757,1.08,1.1,1.635a28.929,28.929,0,0,1,4.026,19.752c-.113.758-.262,1.512-.434,2.252a29.115,29.115,0,0,1-11.15,16.891,24.66,24.66,0,0,1-34.25-4.984,20.664,20.664,0,0,1-3.5-16.566l.009-.037.1-.427c1.819-7.922,7.255-13.848,14.583-15.41a17.909,17.909,0,0,1,18.167,6.856l.012.016a6.022,6.022,0,1,1-9.7,7.133,5.8,5.8,0,0,0-3.364-2.209,5.856,5.856,0,0,0-2.573-.021,5.981,5.981,0,0,0-3.278,1.966,10.051,10.051,0,0,0-2.112,4.4l-.062.275,0-.019a8.578,8.578,0,0,0,1.354,6.817,12.386,12.386,0,0,0,7.116,4.62,12.6,12.6,0,0,0,10.358-2.113,17.1,17.1,0,0,0,6.565-9.93c.1-.435.186-.882.255-1.337A16.931,16.931,0,0,0,8372.77,2137l-.039-.053-.29-.447-.026-.043-.018-.027c-.356-.581-8.964-15.3-31.852-20.643a79.063,79.063,0,0,0-21.607-1.81h-.016a130.689,130.689,0,0,1-33.566-2.932,74.374,74.374,0,0,1-9.572-2.872h0l-1.411-.5a51.2,51.2,0,0,1-32.791-36.251,48.951,48.951,0,0,1-.255-22.869A47.016,47.016,0,0,1,8252.86,2027.084Z" transform="translate(-7307.967 -1828.029)" fill="#fff"/>
    <path id="Tracciato_6" data-name="Tracciato 6" d="M7692.06,1203.61l.007.008h0Z" transform="translate(-6825.663 -1115.479)" fill="#fff"/>
    <path id="Tracciato_7" data-name="Tracciato 7" d="M6715.352,657.718c.9-.869,1.772-1.783,2.612-2.723a42.822,42.822,0,0,0,10.254-33.516,53.382,53.382,0,0,0-1.306-7.153c-3.559-14.026-12.732-24.632-25.419-28.634a36.215,36.215,0,0,0-37.941,10.488,29.464,29.464,0,0,0-7.083,22.69,37.537,37.537,0,0,0,.938,5.261c2.431,9.614,8.771,16.982,17.606,19.81a25.338,25.338,0,0,0,26.672-7.315,21.519,21.519,0,0,0,4.76-19.636,21.29,21.29,0,0,0-6.482-10.656,6.021,6.021,0,1,0-8.022,8.98,9.265,9.265,0,0,1,2.839,4.663,9.485,9.485,0,0,1-2.1,8.651,13.346,13.346,0,0,1-6.673,4.063,13.21,13.21,0,0,1-7.314-.217c-4.711-1.535-8.073-5.358-9.6-11.25a25.287,25.287,0,0,1-.642-3.616,17.419,17.419,0,0,1,4.1-13.425,24.167,24.167,0,0,1,25.315-7.009c8.605,2.727,14.7,9.686,17.352,19.972a42.928,42.928,0,0,1,1.039,5.707,30.367,30.367,0,0,1-7.281,24.122c-.648.729-1.317,1.424-2.017,2.1a35.051,35.051,0,0,1-15.83,8.931,36.863,36.863,0,0,1-17.239.149,39.177,39.177,0,0,1-28.272-24.5l-.567-1.507-.02-.05a62.792,62.792,0,0,1-2.581-8.024,119.386,119.386,0,0,1-3.289-30.371v.015a90.941,90.941,0,0,0-2.62-24.815c-6.758-26.472-24.211-37.317-26.918-38.848-.545-.375-1.1-.734-1.657-1.066a28.927,28.927,0,0,0-19.832-3.618c-.756.129-1.506.293-2.242.48a29.109,29.109,0,0,0-16.657,11.5,24.658,24.658,0,0,0,5.689,34.139,20.665,20.665,0,0,0,16.634,3.158l.037-.01.425-.106c7.883-1.982,13.7-7.539,15.106-14.9a17.909,17.909,0,0,0-7.229-18.022l-.017-.012a6.022,6.022,0,1,0-6.931,9.849,5.8,5.8,0,0,1,2.278,3.318,5.875,5.875,0,0,1,.074,2.573,5.981,5.981,0,0,1-1.9,3.318,10.045,10.045,0,0,1-4.354,2.2l-.273.068.019-.005a8.573,8.573,0,0,1-6.845-1.214,12.385,12.385,0,0,1-4.766-7.019,12.6,12.6,0,0,1,1.9-10.4,17.1,17.1,0,0,1,9.792-6.769c.433-.11.877-.2,1.332-.282a16.929,16.929,0,0,1,12.785,2.866l.054.037.454.281.043.026.028.016c.588.345,15.479,8.647,21.3,31.419a79.069,79.069,0,0,1,2.255,21.565v.016a130.667,130.667,0,0,0,3.624,33.5,74.41,74.41,0,0,0,3.069,9.511h0l.525,1.4a51.2,51.2,0,0,0,36.919,32.035,48.947,48.947,0,0,0,22.87-.217A47,47,0,0,0,6715.352,657.718Z" transform="translate(-5833.558 -518.195)" fill="#fff"/>
    <path id="Tracciato_8" data-name="Tracciato 8" d="M8057.69,956.79s0-.007,0-.011h0Z" transform="translate(-7147.437 -898.251)" fill="#fff"/>
    <path id="Tracciato_9" data-name="Tracciato 9" d="M7912.192,495.41c-1.288.267-2.58.59-3.855.953a45.064,45.064,0,0,0-27.969,24.049,56.17,56.17,0,0,0-2.86,7.1c-4.722,14.478-2.526,29.072,6.511,39.766a38.111,38.111,0,0,0,39.651,12.005,31.006,31.006,0,0,0,19.061-16.2,39.338,39.338,0,0,0,2.124-5.208c3.243-9.919,1.748-20.039-4.521-27.522a26.668,26.668,0,0,0-27.842-8.492,22.646,22.646,0,0,0-15.276,14.792,22.41,22.41,0,0,0-.226,13.125,6.337,6.337,0,0,0,12.187-3.477,9.751,9.751,0,0,1,.1-5.745,9.984,9.984,0,0,1,6.732-6.516,14.05,14.05,0,0,1,8.221.138,13.9,13.9,0,0,1,6.385,4.306c3.328,4.015,4.168,9.305,2.218,15.409a26.554,26.554,0,0,1-1.463,3.577,18.33,18.33,0,0,1-11.2,9.635,25.435,25.435,0,0,1-26.461-8c-6.122-7.265-7.628-16.882-4.206-27.524a45.154,45.154,0,0,1,2.285-5.661c4.237-8.772,11.326-14.871,20.041-17.365.987-.283,1.973-.526,2.977-.736a36.882,36.882,0,0,1,19.1.956,38.787,38.787,0,0,1,15.42,9.562,41.229,41.229,0,0,1,11.372,37.7l-.343,1.659-.01.056a66.162,66.162,0,0,1-2.216,8.589,125.636,125.636,0,0,1-14.153,28.867l.009-.013a95.715,95.715,0,0,0-11.624,23.548c-8.875,27.35.553,46.811,2.1,49.7.274.64.562,1.269.875,1.88a30.445,30.445,0,0,0,15.608,14.37c.745.31,1.5.588,2.265.834a30.637,30.637,0,0,0,21.283-.861,25.952,25.952,0,0,0,14.137-33.569,21.749,21.749,0,0,0-13.022-12.163l-.038-.012-.437-.144c-8.127-2.67-16.423-1-21.816,4.758a18.849,18.849,0,0,0-3.7,20.1l.008.02a6.338,6.338,0,1,0,11.7-4.864,6.1,6.1,0,0,1-.161-4.233,6.179,6.179,0,0,1,1.381-2.33,6.29,6.29,0,0,1,3.554-1.884,10.574,10.574,0,0,1,5.112.489l.281.094-.02-.006a9.018,9.018,0,0,1,5.406,4.928,13.035,13.035,0,0,1,.294,8.924,13.267,13.267,0,0,1-7.537,8.184,18,18,0,0,1-12.518.515c-.447-.145-.9-.312-1.344-.5a17.818,17.818,0,0,1-9.762-9.739l-.027-.063-.245-.5-.024-.048-.015-.03c-.33-.638-8.908-16.4-1.277-39.925a83.234,83.234,0,0,1,10.121-20.453l.009-.014a137.538,137.538,0,0,0,15.613-31.838,78.075,78.075,0,0,0,2.618-10.187h0l.321-1.541a53.879,53.879,0,0,0-14.83-49.26,51.515,51.515,0,0,0-20.466-12.667A49.471,49.471,0,0,0,7912.192,495.41Z" transform="translate(-6986.738 -491.247)" fill="#fff"/>
    <path id="Tracciato_10" data-name="Tracciato 10" d="M9067.28,1900.93h.013Z" transform="translate(-8035.94 -1729.163)" fill="#fff"/>
    <path id="Tracciato_11" data-name="Tracciato 11" d="M8082.91,1251.956c-.181,1.3-.416,2.613-.692,3.91a45.071,45.071,0,0,1-22.116,29.522,56.17,56.17,0,0,1-6.891,3.331c-14.128,5.685-28.836,4.474-40.114-3.824a38.113,38.113,0,0,1-14.642-38.755,31.009,31.009,0,0,1,14.883-20.107,39.439,39.439,0,0,1,5.054-2.469c9.679-3.9,19.876-3.09,27.764,2.662a26.666,26.666,0,0,1,10.344,27.207,22.645,22.645,0,0,1-13.731,16.236,22.406,22.406,0,0,1-13.081,1.107,6.336,6.336,0,0,1,2.651-12.392,9.75,9.75,0,0,0,5.725-.483,9.984,9.984,0,0,0,6.049-7.154,14.055,14.055,0,0,0-.69-8.193,13.911,13.911,0,0,0-4.725-6.082c-4.23-3.05-9.565-3.533-15.523-1.177a26.768,26.768,0,0,0-3.471,1.7,18.331,18.331,0,0,0-8.86,11.822,25.435,25.435,0,0,0,9.759,25.864c7.661,5.62,17.357,6.477,27.745,2.346a45.047,45.047,0,0,0,5.494-2.66c8.468-4.817,14.077-12.3,15.979-21.163.216-1,.393-2,.534-3.019a36.876,36.876,0,0,0-2.238-19,38.8,38.8,0,0,0-10.577-14.743,41.227,41.227,0,0,0-38.375-8.812l-1.632.454-.055.014a66.14,66.14,0,0,0-8.421,2.789,125.644,125.644,0,0,0-27.851,16.061l.012-.01a95.721,95.721,0,0,1-22.714,13.18c-26.691,10.692-46.742,2.593-49.725,1.243-.657-.23-1.3-.475-1.935-.746a30.444,30.444,0,0,1-15.386-14.607c-.36-.723-.687-1.462-.985-2.2a30.644,30.644,0,0,1-.572-21.293,25.952,25.952,0,0,1,32.544-16.36,21.748,21.748,0,0,1,13.01,12.175l.015.037.173.427c3.21,7.929,2.1,16.319-3.282,22.086a18.847,18.847,0,0,1-19.8,5.045l-.021-.007a6.337,6.337,0,0,1,4.067-12,6.105,6.105,0,0,0,4.234-.124,6.176,6.176,0,0,0,2.232-1.535,6.3,6.3,0,0,0,1.641-3.673,10.577,10.577,0,0,0-.832-5.067l-.112-.275.007.019a9.019,9.019,0,0,0-5.28-5.063,13.033,13.033,0,0,0-8.923.307,13.267,13.267,0,0,0-7.66,8.07,18,18,0,0,0,.328,12.524c.175.437.372.872.587,1.307a17.816,17.816,0,0,0,10.373,9.085l.065.023.521.211.049.021.031.013c.659.286,16.958,7.786,39.921-1.409a83.231,83.231,0,0,0,19.726-11.472l.014-.01a137.514,137.514,0,0,1,30.717-17.717,78.254,78.254,0,0,1,9.987-3.3h0l1.516-.423a53.881,53.881,0,0,1,50.146,11.485,51.53,51.53,0,0,1,14.014,19.569A49.5,49.5,0,0,1,8082.91,1251.956Z" transform="translate(-6998.338 -1099.01)" fill="#fff"/>
    <path id="Tracciato_12" data-name="Tracciato 12" d="M8136.91,1777.2a51.123,51.123,0,0,1,6.163-2.959,50.292,50.292,0,0,1-2.8,5.927,22.93,22.93,0,0,1-6.613,7.84l-.005,0a3.432,3.432,0,0,1-1.928.659,3.236,3.236,0,0,1-3.089-3.09,3.436,3.436,0,0,1,.66-1.932A22.792,22.792,0,0,1,8136.91,1777.2Z" transform="translate(-7209.88 -1617.667)" fill="#fff"/>
    <path id="Tracciato_13" data-name="Tracciato 13" d="M8048.272,1700.482l1.248-1.246-1.247,1.248a13.033,13.033,0,0,0,9.252,3.909,13.614,13.614,0,0,0,7.6-2.383c6.082-4.114,10.055-11.126,12.659-17.18a71.975,71.975,0,0,0,3.862-11.7,4.558,4.558,0,0,0,.112-1.006,5.262,5.262,0,0,0-5.129-5.133,4.587,4.587,0,0,0-1,.113h0l-.016,0h-.005a71.694,71.694,0,0,0-11.687,3.857c-6.054,2.6-13.066,6.578-17.181,12.66a13.614,13.614,0,0,0-2.382,7.6A13.045,13.045,0,0,0,8048.272,1700.482Zm6.2-9.286a3.439,3.439,0,0,1,.66-1.932,22.814,22.814,0,0,1,7.61-6.449,51.123,51.123,0,0,1,6.163-2.959,50.367,50.367,0,0,1-2.8,5.927,22.937,22.937,0,0,1-6.613,7.84l0,0a3.434,3.434,0,0,1-1.929.659,3.237,3.237,0,0,1-3.089-3.09Z" transform="translate(-7135.71 -1523.285)" fill="#fff"/>
    <path id="Tracciato_14" data-name="Tracciato 14" d="M7789.726,2130.723a51.2,51.2,0,0,1-6.163,2.959,50.282,50.282,0,0,1,2.8-5.927,22.917,22.917,0,0,1,6.613-7.84l0,0a3.434,3.434,0,0,1,1.928-.659,3.236,3.236,0,0,1,3.089,3.09,3.442,3.442,0,0,1-.66,1.931A22.83,22.83,0,0,1,7789.726,2130.723Z" transform="translate(-6906.191 -1921.3)" fill="#fff"/>
    <path id="Tracciato_15" data-name="Tracciato 15" d="M7709.862,2038.9l-1.248,1.246,1.247-1.248a13.035,13.035,0,0,0-9.253-3.909,13.612,13.612,0,0,0-7.6,2.383c-6.082,4.114-10.056,11.126-12.659,17.18a71.924,71.924,0,0,0-3.861,11.7,4.557,4.557,0,0,0-.112,1.006,5.262,5.262,0,0,0,5.129,5.134,4.6,4.6,0,0,0,1-.113h0l.017,0h0a71.667,71.667,0,0,0,11.687-3.857c6.054-2.6,13.067-6.578,17.182-12.66a13.614,13.614,0,0,0,2.381-7.6A13.042,13.042,0,0,0,7709.862,2038.9Zm-6.2,9.286a3.436,3.436,0,0,1-.66,1.932,22.809,22.809,0,0,1-7.609,6.449,51.163,51.163,0,0,1-6.164,2.959,50.474,50.474,0,0,1,2.8-5.927,22.929,22.929,0,0,1,6.613-7.84l.005,0a3.433,3.433,0,0,1,1.928-.659,3.236,3.236,0,0,1,3.089,3.091Z" transform="translate(-6811.858 -1847.139)" fill="#fff"/>
    <path id="Tracciato_16" data-name="Tracciato 16" d="M8822.02,981.044a12.6,12.6,0,1,0,12.6-12.6,12.6,12.6,0,0,0-12.6,12.6Z" transform="translate(-7820.096 -908.522)" fill="#fff"/>
    <path id="Tracciato_17" data-name="Tracciato 17" d="M8347.85,483.888a5.591,5.591,0,0,1,5.626-5.556,132.725,132.725,0,0,1,92.259,38.006,129.345,129.345,0,0,1,38.708,91.065,5.592,5.592,0,0,1-11.185.092h0a118.149,118.149,0,0,0-35.372-83.189,121.553,121.553,0,0,0-84.481-34.79A5.591,5.591,0,0,1,8347.85,483.888Z" transform="translate(-7402.797 -477.19)" fill="#fff"/>
    <path id="Tracciato_18" data-name="Tracciato 18" d="M7377.695,1652.939a4.89,4.89,0,0,1,4.931,4.852h0a103.382,103.382,0,0,0,30.948,72.783,106.348,106.348,0,0,0,73.917,30.441,4.892,4.892,0,1,1-.063,9.785,116.129,116.129,0,0,1-80.719-33.255,113.168,113.168,0,0,1-33.867-79.675A4.891,4.891,0,0,1,7377.695,1652.939Z" transform="translate(-6544.732 -1510.915)" fill="#fff"/>
    <path id="Tracciato_19" data-name="Tracciato 19" d="M914.321,877.637a4.76,4.76,0,0,1,0-8.008c1.028-.663,25.417-16.162,44.511-12.369h0a16.658,16.658,0,0,1,0,32.746,32.837,32.837,0,0,1-6.375.6C934.7,890.6,915.237,878.227,914.321,877.637Zm42.66-11.034c-9.9-1.954-22.52,3.138-30.31,7.04,8.417,4.183,20.958,8.87,30.31,7.022a7.135,7.135,0,0,0,0-14.062Z" transform="translate(-858.919 -810.145)" fill="#fff"/>
    <path id="Tracciato_20" data-name="Tracciato 20" d="M1435.094,612.29a18.69,18.69,0,0,1-6.505-12.8,16.012,16.012,0,0,1,14.485-17.178,13.693,13.693,0,0,1,10.482,3.8c4.031,3.89,5.426,9.037,3.734,13.773a11.954,11.954,0,0,1-7.431,7.292c4.115-.356,16.759-2.841,26.171-19.626,4.841-8.489,11.23-16.213,16.992-20.584l.7-.558a31.97,31.97,0,0,1,30.073-5.448,29.631,29.631,0,0,1,19.851,20.67q.307,1.137.54,2.308a26.986,26.986,0,0,1-5.209,21.451c-6.8,8.951-16.531,12.981-26.036,10.756a22.99,22.99,0,0,1-17.3-18.012,18.928,18.928,0,0,1,3.516-14.846c4.771-6.4,11.681-9.275,18.494-7.724a16.4,16.4,0,0,1,12.434,12.9,14.106,14.106,0,0,1-11.114,16.511,4.761,4.761,0,0,1-1.823-9.347,4.571,4.571,0,0,0,3.585-5.362,6.88,6.88,0,0,0-5.208-5.415c-3.092-.7-6.254.8-8.733,4.132a9.4,9.4,0,0,0-1.8,7.345,13.458,13.458,0,0,0,10.124,10.549c5.808,1.351,11.751-1.281,16.29-7.245a17.234,17.234,0,0,0,3.441-13.857c-.107-.549-.233-1.09-.386-1.642a20.263,20.263,0,0,0-13.611-14.116,22.539,22.539,0,0,0-21.163,3.82l-.8.639c-4.817,3.655-10.4,10.472-14.555,17.764-13.332,23.762-33.095,24.473-35.834,24.518-.423.028-.842.042-1.265.042A18.521,18.521,0,0,1,1435.094,612.29Zm8.817-20.493a6.456,6.456,0,0,0-5.827,6.943,9.233,9.233,0,0,0,3.208,6.322,9.361,9.361,0,0,0,1.953,1.288,4.763,4.763,0,0,1,3.018-8.089,2.4,2.4,0,0,0,2.06-1.59c.409-1.139-.084-2.458-1.381-3.711a4.106,4.106,0,0,0-2.762-1.174C1444.087,591.786,1444,591.79,1443.911,591.8Z" transform="translate(-1313.385 -548.489)" fill="#fff"/>
    <path id="Tracciato_21" data-name="Tracciato 21" d="M1493.718,1009.025l-.6-.484c-5.859-4.448-12.249-12.172-17.1-20.689-9.422-16.8-22.1-19.252-26.161-19.6a11.959,11.959,0,0,1,7.435,7.294c1.693,4.736.3,9.884-3.734,13.771a13.564,13.564,0,0,1-10.482,3.8,16.012,16.012,0,0,1-14.485-17.178,18.743,18.743,0,0,1,19.9-17.261c2.883-.1,22.512.758,35.82,24.488,4.171,7.319,9.751,14.136,14.676,17.873l.7.563a22.513,22.513,0,0,0,21.159,3.818,20.274,20.274,0,0,0,13.615-14.131c.149-.535.274-1.077.381-1.628A17.234,17.234,0,0,0,1531.4,975.8c-4.539-5.962-10.482-8.584-16.29-7.245a13.457,13.457,0,0,0-10.124,10.549,9.4,9.4,0,0,0,1.8,7.345c2.483,3.329,5.673,4.831,8.733,4.132a6.883,6.883,0,0,0,5.213-5.415,4.577,4.577,0,0,0-3.59-5.361,4.761,4.761,0,1,1,1.823-9.347,14.114,14.114,0,0,1,11.119,16.511,16.418,16.418,0,0,1-12.439,12.9c-6.808,1.562-13.723-1.325-18.494-7.724a18.928,18.928,0,0,1-3.516-14.846,22.99,22.99,0,0,1,17.3-18.012c9.5-2.211,19.233,1.8,26.036,10.756a26.988,26.988,0,0,1,5.209,21.451c-.154.779-.335,1.549-.535,2.29a29.645,29.645,0,0,1-19.856,20.691,32.431,32.431,0,0,1-10.053,1.6A31.919,31.919,0,0,1,1493.718,1009.025ZM1441.3,970.368a9.226,9.226,0,0,0-3.209,6.319,6.457,6.457,0,0,0,5.827,6.943,3.956,3.956,0,0,0,3.032-1.165c1.3-1.251,1.79-2.569,1.381-3.709a2.4,2.4,0,0,0-2.06-1.59,4.759,4.759,0,0,1-3.018-8.085,9.08,9.08,0,0,0-1.954,1.286Z" transform="translate(-1313.389 -899.888)" fill="#fff"/>
    <path id="Tracciato_22" data-name="Tracciato 22" d="M8890.487,8787.094a4.76,4.76,0,0,1-8.008,0c-.663-1.028-16.161-25.418-12.369-44.512h0a16.658,16.658,0,0,1,32.746,0,32.789,32.789,0,0,1,.6,6.375C8903.451,8766.717,8891.077,8786.178,8890.487,8787.094Zm-11.034-42.66c-1.954,9.9,3.138,22.52,7.039,30.31,4.184-8.417,8.87-20.958,7.022-30.31a7.135,7.135,0,0,0-14.062,0Z" transform="translate(-7861.894 -7738.269)" fill="#fff"/>
    <path id="Tracciato_23" data-name="Tracciato 23" d="M8625.141,7856.684a18.687,18.687,0,0,1-12.8,6.505,16.011,16.011,0,0,1-17.178-14.484,13.694,13.694,0,0,1,3.8-10.482c3.89-4.031,9.038-5.426,13.773-3.733a11.954,11.954,0,0,1,7.292,7.431c-.356-4.115-2.842-16.759-19.626-26.171-8.489-4.841-16.213-11.23-20.584-16.992l-.558-.7a31.97,31.97,0,0,1-5.448-30.073,29.632,29.632,0,0,1,20.67-19.851q1.138-.307,2.309-.539a26.982,26.982,0,0,1,21.451,5.208c8.952,6.8,12.981,16.531,10.757,26.036a22.99,22.99,0,0,1-18.013,17.3,18.926,18.926,0,0,1-14.846-3.516c-6.4-4.771-9.275-11.681-7.724-18.493a16.4,16.4,0,0,1,12.9-12.434,14.105,14.105,0,0,1,16.511,11.113,4.761,4.761,0,1,1-9.347,1.823,4.572,4.572,0,0,0-5.361-3.585,6.881,6.881,0,0,0-5.416,5.208c-.7,3.092.8,6.254,4.132,8.733a9.4,9.4,0,0,0,7.346,1.8,13.456,13.456,0,0,0,10.548-10.124c1.352-5.808-1.28-11.751-7.244-16.29a17.236,17.236,0,0,0-13.857-3.441c-.549.107-1.091.232-1.642.386a20.265,20.265,0,0,0-14.116,13.611,22.542,22.542,0,0,0,3.82,21.164l.64.8c3.655,4.817,10.473,10.4,17.764,14.555,23.762,13.333,24.474,33.1,24.518,35.834.028.423.042.842.042,1.265A18.514,18.514,0,0,1,8625.141,7856.684Zm-20.493-8.817a6.457,6.457,0,0,0,6.942,5.827,9.23,9.23,0,0,0,6.322-3.208,9.341,9.341,0,0,0,1.288-1.953,4.763,4.763,0,0,1-8.089-3.018,2.406,2.406,0,0,0-1.59-2.06c-1.14-.409-2.458.083-3.711,1.381a4.1,4.1,0,0,0-1.175,2.762c0,.094,0,.183.013.27Z" transform="translate(-7600.238 -6874.166)" fill="#fff"/>
    <path id="Tracciato_24" data-name="Tracciato 24" d="M9021.875,7798.067l-.484.6c-4.447,5.859-12.172,12.249-20.688,17.1-16.8,9.421-19.251,22.1-19.6,26.161a11.96,11.96,0,0,1,7.294-7.435c4.736-1.693,9.884-.3,13.771,3.734a13.565,13.565,0,0,1,3.8,10.482,16.012,16.012,0,0,1-17.178,14.485,18.742,18.742,0,0,1-17.261-19.9c-.1-2.883.758-22.512,24.487-35.82,7.319-4.171,14.137-9.751,17.873-14.676l.563-.7a22.514,22.514,0,0,0,3.817-21.159,20.272,20.272,0,0,0-14.132-13.615c-.534-.149-1.076-.274-1.627-.382a17.236,17.236,0,0,0-13.857,3.441c-5.962,4.539-8.585,10.481-7.245,16.29a13.457,13.457,0,0,0,10.549,10.124,9.4,9.4,0,0,0,7.345-1.8c3.329-2.483,4.831-5.673,4.132-8.732a6.884,6.884,0,0,0-5.415-5.213,4.577,4.577,0,0,0-5.361,3.59,4.761,4.761,0,0,1-9.347-1.823,14.112,14.112,0,0,1,16.51-11.119,16.42,16.42,0,0,1,12.9,12.438c1.562,6.808-1.325,13.723-7.725,18.494a18.929,18.929,0,0,1-14.846,3.516,22.991,22.991,0,0,1-18.012-17.3c-2.211-9.5,1.8-19.233,10.756-26.036a26.984,26.984,0,0,1,21.451-5.208c.778.153,1.549.334,2.29.535a29.645,29.645,0,0,1,20.69,19.856,32.457,32.457,0,0,1,1.6,10.053A31.919,31.919,0,0,1,9021.875,7798.067Zm-38.656,52.421a9.224,9.224,0,0,0,6.319,3.208,6.456,6.456,0,0,0,6.942-5.827,3.955,3.955,0,0,0-1.165-3.032c-1.251-1.3-2.569-1.791-3.708-1.381a2.4,2.4,0,0,0-1.591,2.06,4.759,4.759,0,0,1-8.084,3.018,9.057,9.057,0,0,0,1.286,1.953Z" transform="translate(-7951.637 -6874.168)" fill="#fff"/>
  </g>
</svg>
