<svg xmlns="http://www.w3.org/2000/svg" width="1008.94" height="1007.949" viewBox="0 0 1008.94 1007.949">
  <g id="Raggruppa_957" data-name="Raggruppa 957" transform="translate(-57.498 -513.448)">
    <path id="Tracciato_94" data-name="Tracciato 94" d="M194.421,614.5a39.41,39.41,0,0,1-11.811,3.724,36.043,36.043,0,0,1-32.852-11.7c-.622-.7-1.235-1.438-1.829-2.2a32.834,32.834,0,0,1-6-26.166c2.53-13.438,10.935-23.106,22.465-25.866a27.957,27.957,0,0,1,28.622,10.18,23.009,23.009,0,0,1,4.253,18.06c-1.71,9.553-7.659,16.456-15.912,18.461a19.965,19.965,0,0,1-20.548-7.258,17.171,17.171,0,0,1,3.111-24.009,5.791,5.791,0,1,1,7.069,9.175,5.564,5.564,0,0,0-.986,7.784,8.363,8.363,0,0,0,8.613,3.055c3.71-.9,6.364-4.271,7.253-9.244a11.445,11.445,0,0,0-2.032-8.972,16.367,16.367,0,0,0-16.751-5.963c-7.046,1.7-12.083,7.788-13.779,16.742a20.979,20.979,0,0,0,3.8,16.945q.622.809,1.3,1.562a24.659,24.659,0,0,0,22.5,7.963,27.393,27.393,0,0,0,20.94-15.663l.452-.991c3.323-6.747,5.682-17.2,6.24-27.428,1.562-33.051,22.442-44.663,25.636-46.12a22.786,22.786,0,0,1,31.032,7.949,19.467,19.467,0,0,1-6.405,26.562,16.507,16.507,0,0,1-13.47,1.571c-6.5-2.037-10.816-6.875-11.553-12.949a14.541,14.541,0,0,1,4.12-11.977c-4.226,2.585-16.687,12.152-17.792,35.553-.645,11.9-3.4,23.783-7.346,31.806l-.387.853A38.825,38.825,0,0,1,194.421,614.5Zm51.1-89.465a5.786,5.786,0,0,1,1.12,10.433,2.921,2.921,0,0,0-1.378,2.852c.175,1.461,1.429,2.627,3.521,3.281a4.8,4.8,0,0,0,3.931-.383,7.857,7.857,0,0,0,2.562-10.724,11.223,11.223,0,0,0-6.931-5.124A10.7,10.7,0,0,0,245.522,525.035Z" transform="translate(302.468 0)" fill="#fff"/>
    <path id="Tracciato_95" data-name="Tracciato 95" d="M139.988,666.54l-.853.387c-8.023,3.949-19.9,6.7-31.806,7.346-23.4,1.106-32.963,13.566-35.553,17.792a14.551,14.551,0,0,1,11.977-4.12C89.827,688.678,94.665,693,96.7,699.5a16.505,16.505,0,0,1-1.571,13.47,19.471,19.471,0,0,1-26.562,6.406,22.786,22.786,0,0,1-7.949-31.032c1.456-3.194,13.069-24.073,46.124-25.636,10.23-.557,20.677-2.917,27.424-6.24l.991-.452a27.391,27.391,0,0,0,15.663-20.94,24.66,24.66,0,0,0-7.963-22.5q-.753-.677-1.562-1.3a20.962,20.962,0,0,0-16.945-3.8c-8.954,1.7-15.041,6.733-16.742,13.779a16.358,16.358,0,0,0,5.963,16.747,11.438,11.438,0,0,0,8.972,2.037c4.972-.89,8.341-3.544,9.244-7.253a8.364,8.364,0,0,0-3.055-8.613,5.564,5.564,0,0,0-7.783.986,5.791,5.791,0,1,1-9.175-7.069,17.167,17.167,0,0,1,24.009-3.111,19.966,19.966,0,0,1,7.258,20.549c-2,8.253-8.908,14.2-18.461,15.912a23.017,23.017,0,0,1-18.06-4.254,27.957,27.957,0,0,1-10.18-28.622c2.76-11.53,12.428-19.935,25.866-22.465a32.835,32.835,0,0,1,26.166,6c.765.595,1.5,1.208,2.2,1.83a36.056,36.056,0,0,1,11.7,32.852A39.422,39.422,0,0,1,158.55,648.6,38.807,38.807,0,0,1,139.988,666.54ZM69.421,702.526a11.238,11.238,0,0,0,5.124,6.931,7.857,7.857,0,0,0,10.723-2.562,4.8,4.8,0,0,0,.382-3.931c-.654-2.092-1.82-3.345-3.281-3.521a2.93,2.93,0,0,0-2.853,1.373A5.784,5.784,0,0,1,69.085,699.7,11.093,11.093,0,0,0,69.421,702.526Z" transform="translate(0 296.077)" fill="#fff"/>
    <path id="Tracciato_96" data-name="Tracciato 96" d="M145.4,634.6a46.107,46.107,0,0,1-14.207,2.82A42.191,42.191,0,0,1,94.476,619.6c-.631-.889-1.253-1.83-1.843-2.793A38.4,38.4,0,0,1,89,585.61c4.664-15.3,15.677-25.47,29.442-27.2a32.716,32.716,0,0,1,31.986,15.5,26.949,26.949,0,0,1,2.631,21.548c-3.207,10.894-11.014,18.161-20.871,19.433a23.359,23.359,0,0,1-22.968-11.074,20.079,20.079,0,0,1,6.691-27.521,6.776,6.776,0,1,1,7.046,11.576,6.51,6.51,0,0,0-2.143,8.926,9.787,9.787,0,0,0,9.627,4.654c4.429-.576,7.949-4.156,9.617-9.825a13.356,13.356,0,0,0-1.217-10.691,19.141,19.141,0,0,0-18.719-9.083c-8.41,1.078-15.051,7.511-18.166,17.7a24.535,24.535,0,0,0,2.249,20.194c.415.682.848,1.346,1.313,1.986a28.856,28.856,0,0,0,25.143,12.143,32.04,32.04,0,0,0,26.359-15.539l.65-1.1c4.728-7.415,8.816-19.267,10.77-31.1,6.051-38.24,31.825-49.073,35.723-50.359a26.666,26.666,0,0,1,35.074,13.217,22.785,22.785,0,0,1-10.852,30.078,19.315,19.315,0,0,1-15.866.1c-7.3-3.2-11.7-9.382-11.779-16.539a17.027,17.027,0,0,1,6.323-13.406c-5.244,2.47-20.958,12-25.244,39.073-2.276,13.76-6.991,27.226-12.617,36.051l-.553.94A45.425,45.425,0,0,1,145.4,634.6Zm70.894-97.511a6.773,6.773,0,0,1-.037,12.281,3.423,3.423,0,0,0-1.968,3.138c.018,1.723,1.327,3.24,3.677,4.267a5.625,5.625,0,0,0,4.617.06,9.185,9.185,0,0,0,4.35-12.143,13.179,13.179,0,0,0-10.641-7.6Z" transform="translate(107.323 36.157)" fill="#fff"/>
    <path id="Tracciato_97" data-name="Tracciato 97" d="M160.844,624.825l-.963.548c-9.037,5.553-22.756,10.106-36.737,12.184-27.5,3.889-37.414,19.649-40,24.926A17.233,17.233,0,0,1,96.826,656.3c7.249.2,13.438,4.76,16.558,12.207a19.56,19.56,0,0,1-.364,16.074,23.092,23.092,0,0,1-30.654,10.5,27.026,27.026,0,0,1-12.806-35.756c1.369-3.931,12.774-29.862,51.617-35.359,12.014-1.783,24.092-5.723,31.686-10.387l1.12-.645a32.457,32.457,0,0,0,16.18-26.442,29.236,29.236,0,0,0-11.88-25.682c-.645-.479-1.309-.931-1.991-1.364a24.869,24.869,0,0,0-20.424-2.608c-10.382,2.986-17.009,9.6-18.244,18.11a19.408,19.408,0,0,0,8.894,19.115,13.555,13.555,0,0,0,10.811,1.41c5.774-1.6,9.456-5.1,10.115-9.581a9.917,9.917,0,0,0-4.558-9.834,6.6,6.6,0,0,0-9.078,2.023,6.865,6.865,0,1,1-11.608-7.332,20.345,20.345,0,0,1,28-6.318,23.674,23.674,0,0,1,10.839,23.451c-1.456,9.968-8.949,17.751-20.041,20.825a27.321,27.321,0,0,1-21.788-3.028,33.156,33.156,0,0,1-15.175-32.663c1.991-13.917,12.47-24.908,28.055-29.378a38.909,38.909,0,0,1,31.553,4.2c.963.613,1.9,1.258,2.8,1.912a42.738,42.738,0,0,1,17.438,37.493,46.793,46.793,0,0,1-3.092,14.35A46.03,46.03,0,0,1,160.844,624.825ZM81.513,675.092a13.289,13.289,0,0,0,6.82,7.613,9.309,9.309,0,0,0,12.373-4.2,5.716,5.716,0,0,0,.018-4.682c-1-2.4-2.521-3.751-4.267-3.8a3.473,3.473,0,0,0-3.212,1.94A6.862,6.862,0,0,1,80.8,671.8,13,13,0,0,0,81.513,675.092Z" transform="translate(34.369 103.194)" fill="#fff"/>
    <path id="Tracciato_98" data-name="Tracciato 98" d="M607.679,529.763c-10.3,1.88-20.659,3.585-30.931,5.687l-30.617,7.35c-2.576.553-5.078,1.341-7.59,2.1l-7.534,2.295-15.064,4.636-7.535,2.332-7.392,2.733-14.8,5.47c-39.355,14.889-77.018,34.2-112.663,56.645a676.922,676.922,0,0,0-99.539,77.631A715.49,715.49,0,0,0,190.594,791.3,704.056,704.056,0,0,0,125.488,899.18,635.3,635.3,0,0,0,81.6,1017.022c-.645,2.539-1.41,5.046-1.963,7.613l-1.677,7.682-3.35,15.355-2.645,15.493c-.889,5.157-1.774,10.313-2.249,15.539-2.825,20.747-3.475,41.719-2.991,62.53l1.111-15.576c.226-2.59.286-5.189.645-7.765l1.014-7.733c.705-5.147,1.166-10.313,2.032-15.428l2.742-15.313c.806-5.115,2.051-10.152,3.184-15.2l3.452-15.138,4.143-14.963,2.065-7.47c.682-2.493,1.571-4.931,2.35-7.4l4.742-14.76c1.465-4.954,3.47-9.737,5.2-14.6l5.364-14.53,5.982-14.3c2.046-4.737,3.857-9.571,6.092-14.23l6.479-14.064,3.235-7.028c1.1-2.332,2.332-4.6,3.488-6.908l7.046-13.779a754.564,754.564,0,0,1,66.175-104.322,720.815,720.815,0,0,1,82.239-91.939,678.943,678.943,0,0,1,96.645-76.469c8.41-5.945,17.369-11,26.161-16.345,4.438-2.6,8.76-5.41,13.29-7.848l13.631-7.235,13.636-7.249L462.85,587.1l13.977-6.59,3.493-1.65L483.9,577.4l7.157-2.908c38.041-15.783,77.557-28.451,118.128-36.654,40.507-8.567,81.829-13.281,123.465-15.479A661.332,661.332,0,0,0,607.679,529.763Z" transform="translate(32.78 30.604)" fill="#fff"/>
    <g id="Raggruppa_953" data-name="Raggruppa 953" transform="translate(245.061 552.624)">
      <path id="Tracciato_99" data-name="Tracciato 99" d="M126.282,528.339l.008,0h0Z" transform="translate(3.133 -498.911)" fill="#fff"/>
      <path id="Tracciato_100" data-name="Tracciato 100" d="M140.46,527.749h0l0,.007Z" transform="translate(54.291 -501.022)" fill="#fff"/>
      <path id="Tracciato_101" data-name="Tracciato 101" d="M292.949,548.677c-.756-1.332-1.571-2.636-2.429-3.908a52.2,52.2,0,0,0-36.493-22.212,65.426,65.426,0,0,0-8.843-.608c-17.636-.027-32.931,7.613-41.479,21.392a44.138,44.138,0,0,0,.958,47.972,35.886,35.886,0,0,0,24.663,15.2,44.753,44.753,0,0,0,6.493.479c12.087.028,22.7-5.239,28.7-14.825a30.9,30.9,0,0,0-.6-33.7,26.237,26.237,0,0,0-21.756-11.539,25.945,25.945,0,0,0-14.544,4.447,7.34,7.34,0,0,0,8.193,12.18,11.323,11.323,0,0,1,6.364-1.949,11.551,11.551,0,0,1,9.581,5.087,16.189,16.189,0,0,1,.327,17.677,15.99,15.99,0,0,1-6.512,5.875,21.6,21.6,0,0,1-9.664,2.078,30.87,30.87,0,0,1-4.465-.332,21.247,21.247,0,0,1-14.622-8.894,29.454,29.454,0,0,1-.65-32.009,28.959,28.959,0,0,1,11.733-10.723,37.707,37.707,0,0,1,17.083-3.751,52.176,52.176,0,0,1,7.055.493c11.175,1.525,20.428,7.157,26.295,15.862l0,0c.659.981,1.281,1.981,1.871,3.009v.009A42.655,42.655,0,0,1,286,577.373a44.931,44.931,0,0,1-5.018,20.405,47.748,47.748,0,0,1-37.461,26.009l-1.945.212-.023,0-.046,0a76.612,76.612,0,0,1-10.258.631,145.345,145.345,0,0,1-36.857-5.267l.018,0a110.877,110.877,0,0,0-30.1-4.382,82.756,82.756,0,0,0-38.622,9.087,61.237,61.237,0,0,0-15.373,11c-.608.53-1.2,1.073-1.756,1.631l1.811,1.815-1.816-1.811A35.283,35.283,0,0,0,98.3,659.05q-.1,1.4-.106,2.793a35.478,35.478,0,0,0,8.558,23.138,30.059,30.059,0,0,0,42.037,3.571l0,0a25.192,25.192,0,0,0,8.737-18.691v-.014l0-.567a26.716,26.716,0,0,0-3.406-13.424,21.846,21.846,0,0,0-33.106-5.8l-.018.019a7.3,7.3,0,0,0-.8,10.327,7.344,7.344,0,0,0,10.346.825l0,0a7.086,7.086,0,0,1,4.6-1.687,7.172,7.172,0,0,1,3.06.687,7.3,7.3,0,0,1,3.346,3.244,12.236,12.236,0,0,1,1.29,5.811v.313a10.472,10.472,0,0,1-3.493,7.714,15.087,15.087,0,0,1-9.733,3.516,15.361,15.361,0,0,1-11.71-5.378,20.806,20.806,0,0,1-5.041-13.6c0-.549.023-1.106.065-1.664a20.626,20.626,0,0,1,7.24-14.235l.051-.042.479-.466.046-.046.018-.019c.594-.594,14.875-15.673,43.525-15.687a96.426,96.426,0,0,1,26.152,3.834l.018,0a159.261,159.261,0,0,0,40.659,5.815,89.767,89.767,0,0,0,12.157-.765v0l1.811-.2a62.4,62.4,0,0,0,48.963-33.954,59.693,59.693,0,0,0,6.636-27.074A57.31,57.31,0,0,0,292.949,548.677Z" transform="translate(-98.199 -521.949)" fill="#fff"/>
    </g>
    <g id="Raggruppa_954" data-name="Raggruppa 954" transform="translate(100.84 696.84)">
      <path id="Tracciato_102" data-name="Tracciato 102" d="M75.5,580.9h0l.005,0Z" transform="translate(-35.882 -453.461)" fill="#fff"/>
      <path id="Tracciato_103" data-name="Tracciato 103" d="M73.288,581.333h0l0,0Z" transform="translate(-43.862 -451.909)" fill="#fff"/>
      <path id="Tracciato_104" data-name="Tracciato 104" d="M229.934,561.806a35.517,35.517,0,0,0-23.138-8.562q-1.389,0-2.788.11A35.247,35.247,0,0,0,181.676,563.6l1.811,1.811-1.816-1.811q-.836.843-1.641,1.765a61.1,61.1,0,0,0-11.018,15.378,82.721,82.721,0,0,0-9.074,38.585,111,111,0,0,0,4.382,30.092l0-.018a145.732,145.732,0,0,1,5.272,36.889,77.887,77.887,0,0,1-.641,10.391l-.009.037-.194,1.843v0a47.779,47.779,0,0,1-26.009,37.46,44.954,44.954,0,0,1-20.41,5.023,42.687,42.687,0,0,1-21.4-5.783c-1.018-.585-2.018-1.2-3-1.871l-.009-.009c-8.7-5.852-14.332-15.111-15.862-26.286a52.517,52.517,0,0,1-.488-7.028,37.7,37.7,0,0,1,3.76-17.092,29.243,29.243,0,0,1,26.193-16.161,29.547,29.547,0,0,1,16.534,5.055,21.285,21.285,0,0,1,8.889,14.626,31.536,31.536,0,0,1,.332,4.466,21.6,21.6,0,0,1-2.078,9.663,16.089,16.089,0,0,1-14.452,8.977,16.226,16.226,0,0,1-9.106-2.793,11.564,11.564,0,0,1-5.083-9.581,11.366,11.366,0,0,1,1.945-6.364l0,0a7.34,7.34,0,1,0-12.18-8.194,25.97,25.97,0,0,0-4.447,14.549,26.238,26.238,0,0,0,11.539,21.755,30.895,30.895,0,0,0,33.7.6c9.567-6,14.848-16.617,14.825-28.719a44.63,44.63,0,0,0-.479-6.479,35.925,35.925,0,0,0-15.2-24.668,44.156,44.156,0,0,0-47.977-.954C74.521,667.3,66.88,682.607,66.9,700.252a65.821,65.821,0,0,0,.608,8.825,52.185,52.185,0,0,0,22.207,36.484c1.276.862,2.581,1.682,3.908,2.438l-.009,0a57.268,57.268,0,0,0,28.691,7.751,59.57,59.57,0,0,0,27.078-6.636,62.4,62.4,0,0,0,33.949-48.958l.184-1.677h0a91.867,91.867,0,0,0,.77-12.29,159.206,159.206,0,0,0-5.816-40.686l0-.019a96.059,96.059,0,0,1-3.82-26.092,68.063,68.063,0,0,1,7.631-32.3,53.526,53.526,0,0,1,5.364-8.235c.747-.936,1.382-1.654,1.843-2.152s.742-.77.857-.876l.452-.465.055-.06.06-.069a20.574,20.574,0,0,1,14.226-7.235h.009c.539-.041,1.088-.064,1.641-.064a20.882,20.882,0,0,1,13.617,5.046,15.373,15.373,0,0,1,5.378,11.7,15.128,15.128,0,0,1-3.521,9.737,10.506,10.506,0,0,1-7.714,3.493h-.318a12.29,12.29,0,0,1-5.806-1.286,7.294,7.294,0,0,1-3.24-3.35,7.114,7.114,0,0,1,1-7.663v0a7.338,7.338,0,0,0-.82-10.346,7.266,7.266,0,0,0-4.737-1.742,7.436,7.436,0,0,0-5.6,2.544l-.014.018a21.853,21.853,0,0,0,5.8,33.106,26.7,26.7,0,0,0,13.419,3.406l.576,0a25.211,25.211,0,0,0,18.7-8.737l0,0a30.048,30.048,0,0,0-3.571-42.037Z" transform="translate(-66.903 -553.244)" fill="#fff"/>
    </g>
    <path id="Tracciato_105" data-name="Tracciato 105" d="M164.554,610.848a104.4,104.4,0,0,0-5.613-17c-3.783-8.8-9.558-18.99-18.4-24.967a19.765,19.765,0,0,0-11.051-3.466,18.925,18.925,0,0,0-13.442,5.682h0a18.945,18.945,0,0,0-5.682,13.452,19.794,19.794,0,0,0,3.461,11.046c5.982,8.838,16.17,14.613,24.972,18.4a104.219,104.219,0,0,0,17.009,5.613,6.77,6.77,0,0,0,1.447.157,7.646,7.646,0,0,0,7.456-7.456A6.855,6.855,0,0,0,164.554,610.848Zm-32.221-29.8.023.014c3.691,2.466,6.977,6.705,9.608,11.392a73.645,73.645,0,0,1,4.069,8.613,74.725,74.725,0,0,1-8.958-4.3c-4.645-2.659-8.737-5.894-11.06-9.373a4.973,4.973,0,0,1-.963-2.806,4.712,4.712,0,0,1,4.493-4.493A4.959,4.959,0,0,1,132.333,581.051Z" transform="translate(190.76 187.498)" fill="#fff"/>
    <g id="Raggruppa_955" data-name="Raggruppa 955" transform="translate(131.186 578.191)">
      <path id="Tracciato_106" data-name="Tracciato 106" d="M127.833,562.713a19.792,19.792,0,0,0-3.461-11.046c-5.982-8.839-16.17-14.613-24.968-18.4a104.384,104.384,0,0,0-16.991-5.608,6.508,6.508,0,0,0-1.47-.166,7.646,7.646,0,0,0-7.456,7.456,6.6,6.6,0,0,0,.161,1.461l0-.009a105.422,105.422,0,0,0,5.613,17.009c3.788,8.8,9.558,18.991,18.4,24.968a19.734,19.734,0,0,0,11.046,3.461,18.922,18.922,0,0,0,13.447-5.682l-1.816-1.811,1.816,1.811A18.954,18.954,0,0,0,127.833,562.713Zm-21.968,3.493-.018-.014c-3.7-2.465-6.982-6.7-9.613-11.392a73.2,73.2,0,0,1-4.065-8.613,74.339,74.339,0,0,1,8.954,4.3c4.645,2.654,8.742,5.894,11.06,9.368a4.973,4.973,0,0,1,.963,2.806,4.7,4.7,0,0,1-4.493,4.493A4.939,4.939,0,0,1,105.866,566.206Z" transform="translate(-73.488 -527.497)" fill="#fff"/>
      <path id="Tracciato_107" data-name="Tracciato 107" d="M75.42,527.532l.021,0h0Z" transform="translate(-66.516 -527.371)" fill="#fff"/>
    </g>
    <g id="Raggruppa_956" data-name="Raggruppa 956" transform="translate(90.665 545.629)">
      <path id="Tracciato_108" data-name="Tracciato 108" d="M71.368,1496.2c-1.5-80.755-2.147-161.515-3.249-242.27l-1.853-242.275c-.8-80.76-.654-161.52-.954-242.275l-.6-242.275-.014-6.673,6.673.014,242.275.594c80.755.313,161.515.129,242.275.936l242.275,1.862c80.76,1.106,161.515,1.756,242.275,3.267-80.76,1.511-161.515,2.156-242.275,3.262l-242.275,1.862c-80.76.811-161.52.622-242.275.94l-242.275.59,6.654-6.654-.6,242.275c-.3,80.755-.152,161.515-.949,242.275l-1.857,242.275C73.515,1334.684,72.87,1415.444,71.368,1496.2Z" transform="translate(-64.695 -520.431)" fill="#fff"/>
    </g>
  </g>
</svg>
