<svg xmlns="http://www.w3.org/2000/svg" width="502.939" height="96.083" viewBox="0 0 502.939 96.083">
  <g id="Raggruppa_992" data-name="Raggruppa 992" transform="translate(-275.893 -96.453)">
    <path id="Tracciato_71" data-name="Tracciato 71" d="M623.3,179.651c-10.463,4.416-13.588-4.573-24.9-4.573-9.65,0-12.8,4.812-12.8,8.37a7.989,7.989,0,0,0,.317,2.161H497.295c-18.085,0-30.239-10.455-30.239-26.01a20.139,20.139,0,0,1,20.118-20.123,15.416,15.416,0,0,1,15.4,15.406,11.638,11.638,0,0,1-11.627,11.624,8.624,8.624,0,0,1-8.614-8.611,3.46,3.46,0,1,0-6.92,0,15.561,15.561,0,0,0,15.534,15.545A18.578,18.578,0,0,0,509.5,154.881a22.351,22.351,0,0,0-22.323-22.333A27.08,27.08,0,0,0,460.125,159.6a30.918,30.918,0,0,0,13.282,26.01H430.572c-31.315,0-53.173-18.943-53.173-46.065a36.2,36.2,0,0,1,36.158-36.168A28.275,28.275,0,0,1,441.8,131.617a21.921,21.921,0,0,1-21.893,21.9,16.84,16.84,0,0,1-16.824-16.822,12.677,12.677,0,0,1,4.613-9.747c.739,4.02,4.35,6.375,8.934,6.375,6.582,0,11.472-3.493,13.227-7.038a.751.751,0,0,0-.949-1.023c-5.745,2.011-5.195-5.373-10.7-7.319a3.467,3.467,0,0,0-2.355-.949,19.717,19.717,0,0,0-19.693,19.7A23.773,23.773,0,0,0,419.9,160.438a28.853,28.853,0,0,0,28.821-28.821,35.2,35.2,0,0,0-35.167-35.164,43.138,43.138,0,0,0-43.086,43.091c0,30.7,25.273,52.992,60.1,52.992H599.283c.034,0,.065-.021.1-.021h.05c11.6,0,24.151-7.945,25.921-11.97.338-.768-1.036-1.324-2.056-.894" transform="translate(153.426)" fill="#fff" fill-rule="evenodd"/>
    <path id="Tracciato_72" data-name="Tracciato 72" d="M487.74,96.453a35.2,35.2,0,0,0-35.161,35.164A28.848,28.848,0,0,0,481.4,160.438a23.774,23.774,0,0,0,23.752-23.744,19.716,19.716,0,0,0-19.69-19.7,3.432,3.432,0,0,0-2.357.949c-5.509,1.946-4.956,9.33-10.7,7.319a.748.748,0,0,0-.944,1.023c1.744,3.545,6.637,7.038,13.221,7.038,4.578,0,8.189-2.355,8.929-6.375a12.68,12.68,0,0,1,4.615,9.747A16.844,16.844,0,0,1,481.4,153.515a21.918,21.918,0,0,1-21.893-21.9,28.274,28.274,0,0,1,28.236-28.241A36.2,36.2,0,0,1,523.9,139.541c0,27.124-21.864,46.067-53.171,46.067H427.887a30.912,30.912,0,0,0,13.282-26.01,27.077,27.077,0,0,0-27.043-27.051A22.359,22.359,0,0,0,391.8,154.881a18.58,18.58,0,0,0,18.555,18.557,15.559,15.559,0,0,0,15.537-15.545,3.464,3.464,0,0,0-6.928,0,8.617,8.617,0,0,1-8.609,8.611,11.643,11.643,0,0,1-11.63-11.624,15.419,15.419,0,0,1,15.4-15.406A20.139,20.139,0,0,1,434.241,159.6c0,15.555-12.151,26.01-30.237,26.01h-88.62a7.989,7.989,0,0,0,.32-2.161c0-3.558-3.152-8.37-12.8-8.37-11.315,0-14.438,8.989-24.908,4.573-1.017-.43-2.389.126-2.051.894,1.767,4.025,14.32,11.97,25.913,11.97h.058c.034,0,.058.021.1.021H470.727c34.826,0,60.1-22.289,60.1-53A43.135,43.135,0,0,0,487.74,96.453" transform="translate(0)" fill="#fff" fill-rule="evenodd"/>
  </g>
</svg>
