<svg xmlns="http://www.w3.org/2000/svg" width="1365.437" height="1016.364" viewBox="0 0 1365.437 1016.364">
  <g id="divisorio_prima_pagina" data-name="divisorio prima pagina" transform="translate(-275.831 -198.695)">
    <path id="Tracciato_31" data-name="Tracciato 31" d="M903.081,394.628c11.366-18.622,26.346-34.786,43.343-48.41-20.322-13.6-45.243-25.589-68.622-32.074a7.187,7.187,0,0,1-1.859-13.218A198.321,198.321,0,0,0,896.155,287.2c13.252-10.01,26.153-21.692,36.376-34.807,10.333-13.266,18.856-29.341,18.856-46.544a7.191,7.191,0,0,1,14.381,0,55.04,55.04,0,0,0,.7,8.647c2.244,13.92,9.542,26.842,18.092,37.843,14.471,18.608,36.3,36.459,56.63,48.623a7.18,7.18,0,0,1-1.742,13.149c-2.134.7-4.378,1.28-6.533,1.976-5.528,1.79-11,3.814-16.371,6a254.926,254.926,0,0,0-45.815,24.2,189.591,189.591,0,0,1,43.288,48.382c22.615-17.727,50.372-28.349,79.251-28.384a117.671,117.671,0,0,1,12.936.7,109.738,109.738,0,0,1,79.547,47.6,5.058,5.058,0,0,1,.516.434l.069.076.64.682a224.723,224.723,0,0,1,42.379,64.877,167.515,167.515,0,0,0,7.614,15.607c13.624,24.549,40.293,56.341,71.989,51.054,2.23-.372,4.447-.771,6.636-1.287,1.136-.626,3.531-2.038,3.759-3.008.248-1.1-1.446-4.7-1.886-5.714-1.79-4.11-3.366-7.834-3.937-12.344-1.1-8.667,3.373-16.784,11.676-19.661,9.652-3.594,19.647,1.363,24.88,9.734,4.557,7.3,6.113,16.013,2.437,24.067-5.569,12.2-20.419,17.823-32.583,20.687-.1.027-.186.048-.282.069l-.179.041h-.028c-2.671.654-5.39,1.109-8.1,1.563a58.555,58.555,0,0,1-24.1-1.019c-33.306-8.412-58.358-44.059-71.135-74.171a197.234,197.234,0,0,0-12.323-24.067c3.284,31.275-9.376,60.464-36.135,79.644-17.527,12.571-39.516,20.894-61.16,15.29a57.159,57.159,0,0,1-21.437-10.925,67.087,67.087,0,0,1-12.97-14.058c-10.608-15.352-17.121-38.325-9.431-56.224a51.013,51.013,0,0,1,51.46-30.958c13.073,1.37,24.412,8.805,27.028,22.243,2.334,11.924.7,25.623-10.113,32.941-8.44,5.7-19.055,4.661-27.413-.682-5.5-3.511-9.08-8.42-9.728-15.008-.661-6.891,2-13.624,4.6-19.868.351-.854,1.115-2.609,1.687-4.179a37.372,37.372,0,0,0-24.295,21.266c-5.466,12.667.083,30.029,7.215,40.954a53.133,53.133,0,0,0,10.994,12.323,42.717,42.717,0,0,0,23.929,9.521c15,1.033,29.417-5.851,41.313-14.381,25.926-18.574,35.86-48.293,27.867-79-4.42-16.949-14.367-32.755-27.145-44.651a96.09,96.09,0,0,0-55.446-25.162c-30.015-3.332-60.237,7.545-83.485,26.332,11.517,23.3,16.873,48.3,16.873,74.329,0,36.521-9.562,70.722-29.471,101.26a134.7,134.7,0,0,0,36.37,30.835c22,12.715,42.758,13.362,67.548,13.362l328.489-.048a40.544,40.544,0,0,1-10.884-25.9c-.792-12.825,1.2-25.933,9.232-36.356,9.314-12.075,24.17-17.217,38.792-19.193,42.772-5.776,70.391,20.171,96.249,50.042,9.948,11.5,23.978,19.551,38.028,24.962,6.781,2.609,15.565,5.432,22.821,6.561a7.258,7.258,0,0,1,6.093,7.552l-.007.117-.014.117a7.285,7.285,0,0,1-7.215,6.5l-154.276-.021c-.213.021-.42.007-.634.021l-.1.007-366.579.021c-27.434,0-50.31-1.239-74.7-15.331a148.415,148.415,0,0,1-37.781-31.117,213.418,213.418,0,0,1-29.871,31.4,236.293,236.293,0,0,0,36.673,22,153.32,153.32,0,0,0,17.761,7.538,7.167,7.167,0,0,1,4.991,7.89l-.014.124a7.181,7.181,0,0,1-7.1,6c-14.36-.007-48.575,32.776-58.578,43.371a7.411,7.411,0,0,1-10.471.1l-.076-.069c-9.906-10.6-44.245-43.316-58.523-43.343a7.259,7.259,0,0,1-7.132-6.072,7.141,7.141,0,0,1,4.888-8.006,148.523,148.523,0,0,0,18.023-7.628,239.446,239.446,0,0,0,36.507-21.892,213.825,213.825,0,0,1-29.926-31.454,149.417,149.417,0,0,1-37.774,31.213c-24.349,14.078-47.343,15.262-74.721,15.262l-366.256-.014c-.172.007-.33.007-.509.007l-.1.014L283,641.82a7.362,7.362,0,0,1-7.146-6.457l-.007-.1-.007-.1a7.326,7.326,0,0,1,6.072-7.69h.014c2.258-.344,4.688-.95,6.9-1.508a141,141,0,0,0,15.965-5.081c14.023-5.418,28.046-13.473,37.973-24.948,25.857-29.905,53.484-55.79,96.276-50,14.677,1.99,29.575,7.167,38.889,19.317,7.979,10.388,9.968,23.448,9.163,36.225A40.72,40.72,0,0,1,476.175,627.4l328.454-.021c24.755,0,45.532-.606,67.513-13.321a134.992,134.992,0,0,0,36.4-30.766c-19.909-30.614-29.485-64.739-29.485-101.336,0-26.022,5.4-51.019,16.928-74.308-23.276-18.808-53.491-29.678-83.547-26.332a95.985,95.985,0,0,0-55.418,25.141c-12.777,11.882-22.711,27.668-27.151,44.6-8.048,30.759,1.955,60.451,27.909,79.052,11.889,8.523,26.3,15.4,41.292,14.361a42.633,42.633,0,0,0,23.936-9.514,53.334,53.334,0,0,0,10.926-12.2c7.2-10.953,12.8-28.377,7.29-41.1a37.218,37.218,0,0,0-24.363-21.259c.585,1.549,1.329,3.236,1.714,4.179a72.656,72.656,0,0,1,3.834,10.987c2.334,9.886-.028,18.181-8.963,23.909-8.392,5.384-18.945,6.416-27.42.7-10.835-7.318-12.309-21.086-10.016-32.989,2.588-13.424,13.968-20.749,26.9-22.16a50.964,50.964,0,0,1,51.556,30.9c7.717,17.961,1.108,41.016-9.569,56.375a67.178,67.178,0,0,1-12.86,13.934A56.892,56.892,0,0,1,810.8,557.11c-21.63,5.7-43.86-2.692-61.4-15.255-26.752-19.166-39.378-48.382-36.067-79.644a193.96,193.96,0,0,0-12.35,24.1,178.681,178.681,0,0,1-17.1,31.344c-17.6,25.637-44.906,49.436-78.212,43.846-2.692-.461-5.4-.943-8.062-1.611a3.525,3.525,0,0,1-.75-.186c-12.109-2.871-26.732-8.5-32.239-20.611-3.656-8.048-2.114-16.722,2.41-24.033,5.232-8.447,15.2-13.3,24.9-9.782a17.785,17.785,0,0,1,11.6,19.579c-.5,4.557-2.045,8.371-3.862,12.516-.44,1-2.127,4.564-1.886,5.645.213.964,2.637,2.4,3.766,3.022,2.175.51,4.385.9,6.581,1.26a42.273,42.273,0,0,0,12.006.276c31.441-3.731,56.251-39.846,67.7-66.874a231.021,231.021,0,0,1,42.235-64.884l.867-.943.261-.186a109.994,109.994,0,0,1,79.671-47.673,116.926,116.926,0,0,1,12.984-.757c28.865.028,56.644,10.643,79.231,28.37M429.052,627.26a3.612,3.612,0,0,1,.778.158l8.3-.028c17.369-.048,33.5-7.869,34.676-26.842.523-8.33-.11-17.025-4.64-24.281-6.581-10.526-19.372-14.519-31.02-16.082-36.831-4.964-61.346,19.524-83.471,45.167a98.551,98.551,0,0,1-28.3,22.071l71.727-.041a40.089,40.089,0,0,1-4.674-19.7c-.709-16.3,7.277-30.724,22.415-37.32a36.773,36.773,0,0,1,14.588-3.029,32.17,32.17,0,0,1,23.248,9.39c6.988,7.167,11.937,16.908,6.636,26.5l-.034.069c-3.187,5.466-10.918,10.691-17.486,9.087-4.186-1.026-6.051-4.316-7.758-7.889-2.017-4.268-2.527-5.211-7.635-3.862-5.425,1.308-7.235,9.838-6.939,14.519.372,5.976,3.2,11.194,9.59,12.109M1002.5,662.6a252.427,252.427,0,0,1-43.949-26.566A253.6,253.6,0,0,1,914.6,662.639c15.269,8.619,31.95,23.757,43.949,35.812,12.034-12.054,28.687-27.2,43.949-35.853m487.521-35.172a3.267,3.267,0,0,1,.874-.165c6.279-.971,9.17-6.134,9.5-12.089.261-4.681-1.556-13.2-6.926-14.588-5.039-1.308-5.6-.385-7.614,3.883-1.707,3.587-3.6,6.919-7.807,7.931-6.595,1.59-14.34-3.649-17.472-9.184-5.39-9.507-.378-19.413,6.581-26.5a31.982,31.982,0,0,1,23.262-9.356,36.4,36.4,0,0,1,14.657,2.988c15.276,6.581,23.028,21.327,22.415,37.643a40.045,40.045,0,0,1-4.661,19.393l68.884.021a98.476,98.476,0,0,1-28.322-22.036c-22.119-25.63-46.537-50.166-83.375-45.209-11.655,1.57-24.46,5.563-31.048,16.1-4.53,7.256-5.156,15.958-4.626,24.287,1.211,18.939,17.176,26.835,34.573,26.862ZM907.135,417.793a150.966,150.966,0,0,0-13.6,64.161v.22l-.034.22a6.891,6.891,0,0,0,.007,1.129v.083c.255,31.461,8.172,60.85,24.377,87.6,1.514-2.1,3-4.213,4.427-6.368a120.01,120.01,0,0,0,17.83-42.18c-8-12.378-21.8-30.139-36.831-32.032a7.075,7.075,0,0,1-6.058-5.383,4.542,4.542,0,0,1-.207-1.811,6.869,6.869,0,0,1,3.3-6.031,202.9,202.9,0,0,0,31.2-24.356,124.354,124.354,0,0,0-6.753-12.557,126.227,126.227,0,0,0-17.658-22.7m51.453,53.484a10.7,10.7,0,1,0,10.691,10.7,10.718,10.718,0,0,0-10.691-10.7m32.088,112.606c-2.719-3.621-5.363-7.291-7.883-11.056a132.59,132.59,0,0,1-14.932-29.988c-.2.888-.365,1.79-.482,2.678a7.182,7.182,0,0,1-13.638,2.127c-.661-1.129-1.528-3.27-2-4.234q-.785-1.631-1.591-3.229a134.772,134.772,0,0,1-15.841,32.659c-2.506,3.773-5.143,7.442-7.882,11.042a198.757,198.757,0,0,0,32.032,33.87,195.447,195.447,0,0,0,32.212-33.87m8.474-12.715c16.543-27.179,24.418-57.2,24.473-89.179a151.977,151.977,0,0,0-13.6-64.223,124.991,124.991,0,0,0-17.692,22.663c-2.1,3.463-3.993,7.029-5.8,10.636,6.939,9.473,17.1,20.825,28.322,23.971a7.148,7.148,0,0,1,5.129,5.741,5.413,5.413,0,0,1,.131,1.267,7.273,7.273,0,0,1-3.284,5.934c-1.046.805-2.506,1.659-3.607,2.409q-4.368,3.015-8.584,6.272a155.545,155.545,0,0,0-22.849,21.279c-1.6,1.872-3.139,3.8-4.592,5.79a121.555,121.555,0,0,0,17.6,41.1q2.117,3.222,4.365,6.34M966.829,416.492c1.274,2.575,2.389,5.266,3.683,7.869,2.168,4.371,4.489,8.688,6.967,12.908q1.218-2.23,2.568-4.33a145.028,145.028,0,0,1,22.938-28.68c-11.345-19.221-26.745-35.667-44.376-49.277-17.665,13.624-33.058,30.1-44.4,49.36a147.377,147.377,0,0,1,22.849,28.583c1.79,2.926,3.449,5.934,5,8.984,5.26-6.382,10.987-15,10.973-22.6a7.268,7.268,0,0,1,5.694-7.042l.089-.021.09-.014a10.873,10.873,0,0,1,1.17-.124l.172-.007.158.007a7.279,7.279,0,0,1,6.423,4.385m54.014-111.456c-24.184-16.619-50.1-40.452-62.3-67.507-12.171,27.076-38.1,50.868-62.3,67.493a267.715,267.715,0,0,1,62.309,32.156,267.858,267.858,0,0,1,62.282-32.143" transform="translate(0 0)" fill="#fff" fill-rule="evenodd"/>
    <path id="Tracciato_32" data-name="Tracciato 32" d="M903.081,592.469c11.366,18.615,26.346,34.786,43.343,48.4-20.322,13.61-45.243,25.589-68.622,32.081a7.181,7.181,0,0,0-1.859,13.211A198.364,198.364,0,0,1,896.155,699.9c13.252,10,26.153,21.685,36.376,34.8,10.333,13.266,18.856,29.341,18.856,46.551a7.191,7.191,0,0,0,14.381,0,55.058,55.058,0,0,1,.7-8.654c2.244-13.913,9.542-26.835,18.092-37.843,14.471-18.615,36.3-36.459,56.63-48.616a7.186,7.186,0,0,0-1.742-13.156c-2.134-.7-4.378-1.281-6.533-1.976-5.528-1.783-11-3.807-16.371-6A254.942,254.942,0,0,1,970.725,640.8a189.615,189.615,0,0,0,43.288-48.389c22.615,17.727,50.372,28.349,79.251,28.384a114.308,114.308,0,0,0,12.936-.7,109.722,109.722,0,0,0,79.547-47.591c.179-.138.351-.289.516-.441l.069-.076.64-.688a224.6,224.6,0,0,0,42.379-64.87,168.487,168.487,0,0,1,7.614-15.613c13.624-24.542,40.293-56.341,71.989-51.061,2.23.379,4.447.792,6.636,1.3,1.136.62,3.531,2.038,3.759,2.995.248,1.115-1.446,4.709-1.886,5.728-1.79,4.1-3.366,7.827-3.937,12.343-1.1,8.66,3.373,16.777,11.676,19.655,9.652,3.594,19.647-1.356,24.88-9.734,4.557-7.3,6.113-16.006,2.437-24.06-5.569-12.2-20.419-17.83-32.583-20.694-.1-.028-.186-.048-.282-.069l-.179-.041h-.028c-2.671-.654-5.39-1.108-8.1-1.556a58.435,58.435,0,0,0-24.1,1.012c-33.306,8.419-58.358,44.066-71.135,74.178a197.153,197.153,0,0,1-12.323,24.06c3.284-31.261-9.376-60.458-36.135-79.644-17.527-12.571-39.516-20.9-61.16-15.276a56.93,56.93,0,0,0-21.437,10.911,66.822,66.822,0,0,0-12.97,14.071c-10.608,15.345-17.121,38.318-9.431,56.224a51.019,51.019,0,0,0,51.46,30.952c13.073-1.384,24.412-8.819,27.028-22.243,2.334-11.924.7-25.623-10.113-32.948-8.44-5.693-19.055-4.668-27.413.688-5.5,3.5-9.08,8.412-9.728,15-.661,6.905,2,13.638,4.6,19.875.351.84,1.115,2.6,1.687,4.179a37.382,37.382,0,0,1-24.295-21.272c-5.466-12.667.083-30.029,7.215-40.961a53.241,53.241,0,0,1,10.994-12.316,42.6,42.6,0,0,1,23.929-9.507c15-1.046,29.417,5.845,41.313,14.368,25.926,18.574,35.86,48.3,27.867,79-4.42,16.949-14.367,32.755-27.145,44.644a96.107,96.107,0,0,1-55.446,25.176c-30.015,3.332-60.237-7.552-83.485-26.339,11.517-23.3,16.873-48.3,16.873-74.322,0-36.535-9.562-70.736-29.471-101.267a134.818,134.818,0,0,1,36.37-30.835c22-12.708,42.758-13.362,67.548-13.362l328.489.055a40.528,40.528,0,0,0-10.884,25.9c-.792,12.825,1.2,25.926,9.232,36.349,9.314,12.082,24.17,17.218,38.792,19.2,42.772,5.762,70.391-20.178,96.249-50.055,9.948-11.483,23.978-19.551,38.028-24.949,6.781-2.616,15.565-5.438,22.821-6.56a7.263,7.263,0,0,0,6.093-7.552l-.007-.11-.014-.124a7.29,7.29,0,0,0-7.215-6.5l-154.276.021c-.213-.014-.42-.014-.634-.014l-.1-.007-366.579-.021c-27.434-.014-50.31,1.232-74.7,15.311a148.6,148.6,0,0,0-37.781,31.131,213.814,213.814,0,0,0-29.871-31.406,237.934,237.934,0,0,1,36.673-22.009,155.711,155.711,0,0,1,17.761-7.531,7.162,7.162,0,0,0,4.991-7.889l-.014-.131a7.174,7.174,0,0,0-7.1-5.989c-14.36.007-48.575-32.776-58.578-43.378a7.442,7.442,0,0,0-10.471-.1l-.076.076c-9.906,10.595-44.245,43.309-58.523,43.343a7.254,7.254,0,0,0-7.132,6.065,7.125,7.125,0,0,0,4.888,8,149.678,149.678,0,0,1,18.023,7.642,238.885,238.885,0,0,1,36.507,21.892,213.479,213.479,0,0,0-29.926,31.454,149.129,149.129,0,0,0-37.774-31.213c-24.349-14.071-47.343-15.255-74.721-15.255l-366.256.014c-.172-.014-.33-.014-.509-.014l-.1-.014L283,345.27a7.374,7.374,0,0,0-7.146,6.45l-.007.11-.007.11a7.331,7.331,0,0,0,6.072,7.69h.014c2.258.351,4.688.95,6.9,1.515a139.542,139.542,0,0,1,15.965,5.067c14.023,5.418,28.046,13.472,37.973,24.948,25.857,29.912,53.484,55.783,96.276,50.007,14.677-1.99,29.575-7.167,38.889-19.324,7.979-10.4,9.968-23.441,9.163-36.218A40.657,40.657,0,0,0,476.175,359.7l328.454.014c24.755,0,45.532.606,67.513,13.314a134.892,134.892,0,0,1,36.4,30.773c-19.909,30.6-29.485,64.733-29.485,101.343,0,26.016,5.4,51.012,16.928,74.3-23.276,18.8-53.491,29.678-83.547,26.339a96.048,96.048,0,0,1-55.418-25.155c-12.777-11.882-22.711-27.661-27.151-44.6-8.048-30.766,1.955-60.458,27.909-79.059,11.889-8.516,26.3-15.407,41.292-14.361a42.633,42.633,0,0,1,23.936,9.514,53.372,53.372,0,0,1,10.926,12.206c7.2,10.96,12.8,28.37,7.29,41.1a37.243,37.243,0,0,1-24.363,21.251c.585-1.542,1.329-3.229,1.714-4.178a72.4,72.4,0,0,0,3.834-10.987c2.334-9.879-.028-18.175-8.963-23.9-8.392-5.391-18.945-6.423-27.42-.7-10.835,7.325-12.309,21.093-10.016,33,2.588,13.417,13.968,20.756,26.9,22.16a51,51,0,0,0,51.556-30.9c7.717-17.975,1.108-41.023-9.569-56.389a66.968,66.968,0,0,0-12.86-13.927,56.79,56.79,0,0,0-21.245-10.87c-21.63-5.707-43.86,2.692-61.4,15.242-26.752,19.173-39.378,48.4-36.067,79.651a193.892,193.892,0,0,1-12.35-24.095,178.986,178.986,0,0,0-17.1-31.351C666.276,443.8,638.974,420,605.668,425.6c-2.692.448-5.4.929-8.062,1.6a3.518,3.518,0,0,0-.75.193c-12.109,2.871-26.732,8.5-32.239,20.6-3.656,8.054-2.114,16.729,2.41,24.04,5.232,8.447,15.2,13.3,24.9,9.782a17.8,17.8,0,0,0,11.6-19.586c-.5-4.557-2.045-8.378-3.862-12.509-.44-1.005-2.127-4.564-1.886-5.652.213-.957,2.637-2.389,3.766-3.015,2.175-.51,4.385-.9,6.581-1.267a42.276,42.276,0,0,1,12.006-.269c31.441,3.731,56.251,39.832,67.7,66.867a231.054,231.054,0,0,0,42.235,64.891l.867.936.261.186a110,110,0,0,0,79.671,47.68,118.51,118.51,0,0,0,12.984.758c28.865-.034,56.644-10.643,79.231-28.37M429.052,359.823a4.065,4.065,0,0,0,.778-.145l8.3.028c17.369.041,33.5,7.862,34.676,26.842.523,8.323-.11,17.025-4.64,24.281-6.581,10.526-19.372,14.512-31.02,16.075-36.831,4.963-61.346-19.517-83.471-45.161a98.575,98.575,0,0,0-28.3-22.078l71.727.041a40.132,40.132,0,0,0-4.674,19.71c-.709,16.288,7.277,30.718,22.415,37.319a36.89,36.89,0,0,0,14.588,3.029,32.2,32.2,0,0,0,23.248-9.4c6.988-7.16,11.937-16.9,6.636-26.5l-.034-.055c-3.187-5.466-10.918-10.7-17.486-9.094-4.186,1.026-6.051,4.31-7.758,7.883-2.017,4.268-2.527,5.225-7.635,3.869-5.425-1.315-7.235-9.83-6.939-14.526.372-5.962,3.2-11.2,9.59-12.116m573.444-35.33a252.44,252.44,0,0,0-43.949,26.566,253.567,253.567,0,0,0-43.949-26.6c15.269-8.626,31.95-23.764,43.949-35.819,12.034,12.068,28.687,27.193,43.949,35.853m487.521,35.185a3.886,3.886,0,0,0,.874.151c6.279.978,9.17,6.154,9.5,12.089.261,4.7-1.556,13.2-6.926,14.588-5.039,1.315-5.6.392-7.614-3.869-1.707-3.6-3.6-6.919-7.807-7.937-6.595-1.59-14.34,3.649-17.472,9.183-5.39,9.5-.378,19.421,6.581,26.491a31.983,31.983,0,0,0,23.262,9.356,36.383,36.383,0,0,0,14.657-2.974c15.276-6.588,23.028-21.341,22.415-37.657a40.019,40.019,0,0,0-4.661-19.386l68.884-.014a98.337,98.337,0,0,0-28.322,22.03c-22.119,25.616-46.537,50.165-83.375,45.2-11.655-1.556-24.46-5.556-31.048-16.1-4.53-7.249-5.156-15.958-4.626-24.281,1.211-18.938,17.176-26.835,34.573-26.862ZM907.135,569.3a151,151,0,0,1-13.6-64.154v-.234l-.034-.213a6.976,6.976,0,0,1,.007-1.136v-.083c.255-31.454,8.172-60.85,24.377-87.6,1.514,2.093,3,4.206,4.427,6.368a120.086,120.086,0,0,1,17.83,42.173c-8,12.378-21.8,30.139-36.831,32.032a7.085,7.085,0,0,0-6.058,5.384,4.59,4.59,0,0,0-.207,1.817,6.849,6.849,0,0,0,3.3,6.024,202.961,202.961,0,0,1,31.2,24.363,125.109,125.109,0,0,1-6.753,12.557,126.481,126.481,0,0,1-17.658,22.7m51.453-53.484a10.7,10.7,0,1,1,10.691-10.7,10.721,10.721,0,0,1-10.691,10.7m32.088-112.605c-2.719,3.621-5.363,7.283-7.883,11.042a132.823,132.823,0,0,0-14.932,30c-.2-.9-.365-1.79-.482-2.685a7.185,7.185,0,0,0-13.638-2.12c-.661,1.129-1.528,3.27-2,4.234q-.785,1.621-1.591,3.229a134.818,134.818,0,0,0-15.841-32.666c-2.506-3.759-5.143-7.449-7.882-11.035a198.248,198.248,0,0,1,32.032-33.871,195.689,195.689,0,0,1,32.212,33.871m8.474,12.708c16.543,27.179,24.418,57.208,24.473,89.185a152,152,0,0,1-13.6,64.223,124.8,124.8,0,0,1-17.692-22.67c-2.1-3.456-3.993-7.036-5.8-10.636,6.939-9.473,17.1-20.825,28.322-23.978a7.122,7.122,0,0,0,5.129-5.728,5.511,5.511,0,0,0,.131-1.274,7.26,7.26,0,0,0-3.284-5.927c-1.046-.819-2.506-1.666-3.607-2.409-2.912-2.01-5.776-4.11-8.584-6.272a154.841,154.841,0,0,1-22.849-21.286c-1.6-1.865-3.139-3.8-4.592-5.79a121.553,121.553,0,0,1,17.6-41.1c1.411-2.141,2.871-4.261,4.365-6.34M966.829,570.605c1.274-2.582,2.389-5.26,3.683-7.869,2.168-4.379,4.489-8.695,6.967-12.908.812,1.48,1.666,2.939,2.568,4.33a145.621,145.621,0,0,0,22.938,28.68c-11.345,19.221-26.745,35.667-44.376,49.271-17.665-13.624-33.058-30.091-44.4-49.36a147.14,147.14,0,0,0,22.849-28.576c1.79-2.926,3.449-5.934,5-8.991,5.26,6.4,10.987,15,10.973,22.608a7.274,7.274,0,0,0,5.694,7.042l.089.014.09.007a8.21,8.21,0,0,0,1.17.131l.172.014.158-.007a7.3,7.3,0,0,0,6.423-4.385m54.014,111.456c-24.184,16.625-50.1,40.452-62.3,67.507-12.171-27.076-38.1-50.868-62.3-67.493a267.972,267.972,0,0,0,62.309-32.156,268.389,268.389,0,0,0,62.282,32.143" transform="translate(0 426.663)" fill="#fff" fill-rule="evenodd"/>
  </g>
</svg>
