<svg xmlns="http://www.w3.org/2000/svg" width="1216.735" height="460.874" viewBox="0 0 1216.735 460.874">
  <path id="Tracciato_134" data-name="Tracciato 134" d="M825.155,732.281A167.828,167.828,0,0,1,868.292,770.9c12.115-18.109,22.8-40.316,28.581-61.149a6.411,6.411,0,0,1,11.778-1.662,176.139,176.139,0,0,0,12.232,18.017c8.919,11.809,19.33,23.3,31.016,32.409,11.821,9.208,26.145,16.808,41.476,16.808a6.408,6.408,0,0,1,0,12.815,49.09,49.09,0,0,0-7.711.626c-12.392,1.988-23.912,8.5-33.721,16.115-16.576,12.895-32.482,32.341-43.322,50.463a6.4,6.4,0,0,1-11.717-1.552c-.626-1.9-1.135-3.9-1.767-5.822-1.595-4.92-3.392-9.8-5.349-14.588a225.841,225.841,0,0,0-21.562-40.831,168.709,168.709,0,0,1-43.108,38.58c15.784,20.146,25.25,44.886,25.281,70.627a102.013,102.013,0,0,1-.62,11.527,97.81,97.81,0,0,1-42.414,70.878,4.64,4.64,0,0,1-.393.454l-.073.073-.6.564a200.326,200.326,0,0,1-57.818,37.764,148.406,148.406,0,0,0-13.9,6.785c-21.876,12.14-50.205,35.911-45.494,64.155.331,1.975.687,3.957,1.147,5.914.558,1.006,1.816,3.147,2.681,3.343.975.227,4.184-1.288,5.091-1.687,3.663-1.589,6.988-2.994,10.993-3.5,7.736-.982,14.962,2.994,17.521,10.392,3.208,8.619-1.208,17.52-8.674,22.189-6.509,4.061-14.263,5.441-21.44,2.159-10.87-4.963-15.882-18.2-18.434-29.022a1.319,1.319,0,0,1-.062-.258l-.043-.159v-.025c-.583-2.374-.988-4.8-1.392-7.214a52.25,52.25,0,0,1,.914-21.471c7.5-29.679,39.267-52.021,66.093-63.394a174.364,174.364,0,0,0,21.446-10.975c-27.869,2.92-53.885-8.361-70.97-32.2-11.2-15.625-18.625-35.218-13.619-54.5a50.8,50.8,0,0,1,9.729-19.115,59.56,59.56,0,0,1,12.527-11.545c13.68-9.466,34.151-15.257,50.107-8.41a45.476,45.476,0,0,1,27.581,45.855c-1.221,11.65-7.858,21.753-19.815,24.09-10.625,2.073-22.845.613-29.36-9.03-5.079-7.5-4.153-16.962.607-24.416,3.129-4.9,7.5-8.1,13.367-8.668,6.147-.6,12.153,1.779,17.71,4.1.76.313,2.319.988,3.717,1.5a33.311,33.311,0,0,0-18.937-21.649c-11.294-4.865-26.765.067-36.507,6.429a47.363,47.363,0,0,0-10.981,9.8,37.945,37.945,0,0,0-8.472,21.324c-.92,13.361,5.208,26.213,12.809,36.813,16.557,23.1,43.034,31.949,70.394,24.827a84.356,84.356,0,0,0,39.776-24.188,85.576,85.576,0,0,0,22.44-49.407c2.963-26.747-6.729-53.677-23.477-74.381-20.759,10.257-43.033,15.029-66.222,15.029-32.55,0-63.032-8.521-90.245-26.262a120.2,120.2,0,0,0-27.47,32.409c-11.331,19.612-11.9,38.108-11.9,60.18l.031,292.727a36.2,36.2,0,0,1,23.084-9.7c11.429-.693,23.109,1.073,32.385,8.239,10.772,8.294,15.348,21.526,17.115,34.562,5.147,38.108-17.974,62.725-44.6,85.767-10.232,8.858-17.422,21.366-22.238,33.881a108.332,108.332,0,0,0-5.846,20.348,6.471,6.471,0,0,1-6.729,5.423l-.1-.006-.11-.012a6.49,6.49,0,0,1-5.791-6.423l.018-137.481c-.012-.19-.012-.368-.012-.57l-.006-.086L604.9,918.832c0-24.428,1.1-44.825,13.649-66.553a132.4,132.4,0,0,1,27.734-33.666,189.962,189.962,0,0,1-27.986-26.63,211.964,211.964,0,0,0-19.606,32.691,138.079,138.079,0,0,0-6.711,15.827,6.379,6.379,0,0,1-7.037,4.442l-.1-.012A6.384,6.384,0,0,1,579.5,838.6c.006-12.79-29.206-43.285-38.66-52.192a6.624,6.624,0,0,1-.086-9.324l.067-.068c9.441-8.828,38.6-39.439,38.623-52.156a6.446,6.446,0,0,1,5.41-6.349,6.34,6.34,0,0,1,7.129,4.349,132.441,132.441,0,0,0,6.809,16.06,211.819,211.819,0,0,0,19.5,32.531,190.322,190.322,0,0,1,28.035-26.673,132.326,132.326,0,0,1-27.814-33.66c-12.545-21.692-13.6-42.181-13.6-66.584l.012-326.362c-.006-.153-.006-.294-.006-.454l-.012-.092-.025-137.892a6.55,6.55,0,0,1,5.754-6.362l.092-.012.092-.006a6.529,6.529,0,0,1,6.852,5.411v.012c.313,2.018.847,4.184,1.349,6.153a125.254,125.254,0,0,0,4.528,14.226c4.815,12.5,12,24.992,22.225,33.832,26.648,23.054,49.708,47.665,44.555,85.8-1.779,13.073-6.386,26.354-17.214,34.654-9.263,7.1-20.894,8.871-32.286,8.159a36.23,36.23,0,0,1-23.1-9.742l.019,292.69c0,22.066.54,40.58,11.871,60.167a120.355,120.355,0,0,0,27.415,32.433c27.28-17.741,57.689-26.28,90.306-26.28a147.665,147.665,0,0,1,66.2,15.085c16.765-20.729,26.452-47.659,23.477-74.436A85.545,85.545,0,0,0,814.6,602.131a84.607,84.607,0,0,0-39.74-24.195c-27.409-7.171-53.873,1.742-70.443,24.875-7.6,10.594-13.729,23.428-12.8,36.789a38.082,38.082,0,0,0,8.484,21.324,47.172,47.172,0,0,0,10.876,9.742c9.76,6.417,25.274,11.4,36.611,6.5a33.174,33.174,0,0,0,18.949-21.7c-1.374.521-2.883,1.184-3.724,1.528a65.888,65.888,0,0,1-9.8,3.4c-8.8,2.086-16.2-.018-21.3-7.975-4.8-7.484-5.718-16.888-.62-24.434,6.515-9.668,18.79-10.975,29.4-8.926,11.962,2.3,18.49,12.441,19.753,23.968a45.42,45.42,0,0,1-27.544,45.941c-16,6.877-36.549.994-50.235-8.527a59.379,59.379,0,0,1-12.41-11.459,50.532,50.532,0,0,1-9.693-18.931c-5.079-19.275,2.4-39.077,13.594-54.714,17.079-23.839,43.114-35.083,70.97-32.139a172.385,172.385,0,0,0-21.477-11,159.437,159.437,0,0,1-27.93-15.244c-22.851-15.68-44.052-40.022-39.064-69.688.4-2.411.828-4.822,1.423-7.19a3.18,3.18,0,0,1,.178-.669c2.546-10.791,7.564-23.814,18.36-28.728,7.178-3.264,14.9-1.883,21.409,2.153,7.527,4.656,11.858,13.539,8.73,22.182a15.856,15.856,0,0,1-17.453,10.331,36.878,36.878,0,0,1-11.146-3.435c-.9-.393-4.073-1.9-5.043-1.681-.853.2-2.123,2.349-2.687,3.356-.454,1.945-.8,3.908-1.129,5.865a38.142,38.142,0,0,0-.239,10.7c3.325,28.01,35.5,50.125,59.591,60.327A205.944,205.944,0,0,1,806.266,578.1l.847.779.166.233a98.048,98.048,0,0,1,42.488,70.995,105.683,105.683,0,0,1,.669,11.57c-.025,25.728-9.484,50.475-25.28,70.6m-207.3-422.4a3.665,3.665,0,0,1-.135.693l.024,7.4c.043,15.471,7.012,29.857,23.918,30.906,7.423.46,15.177-.1,21.637-4.147,9.385-5.858,12.938-17.256,14.33-27.636,4.417-32.82-17.4-54.665-40.249-74.381a87.612,87.612,0,0,1-19.661-25.219l.024,63.915a35.786,35.786,0,0,1,17.569-4.165c14.514-.632,27.366,6.484,33.255,19.974a32.788,32.788,0,0,1,2.693,13,28.714,28.714,0,0,1-8.368,20.716c-6.38,6.227-15.066,10.643-23.618,5.92l-.055-.037c-4.87-2.84-9.527-9.729-8.1-15.576.914-3.736,3.846-5.4,7.03-6.914,3.8-1.8,4.65-2.258,3.435-6.809-1.159-4.828-8.754-6.441-12.931-6.184-5.319.331-9.981,2.853-10.8,8.545M586.362,820.864a225.029,225.029,0,0,1,23.679-39.15,226.2,226.2,0,0,1-23.71-39.163c-7.693,13.6-21.17,28.47-31.906,39.163,10.735,10.723,24.231,25.563,31.936,39.15m31.354,434.44a3.641,3.641,0,0,1,.141.779c.865,5.583,5.472,8.165,10.766,8.466,4.184.233,11.754-1.386,13.005-6.171,1.166-4.5.344-5.006-3.454-6.8-3.2-1.515-6.165-3.2-7.073-6.95-1.411-5.865,3.251-12.766,8.184-15.563,8.466-4.816,17.305-.338,23.612,5.865a28.546,28.546,0,0,1,8.337,20.722,32.368,32.368,0,0,1-2.656,13.06c-5.865,13.619-19.011,20.526-33.556,19.98a35.665,35.665,0,0,1-17.275-4.159l-.012,61.382a87.323,87.323,0,0,1,19.636-25.225c22.826-19.716,44.69-41.475,40.279-74.3-1.393-10.386-4.951-21.8-14.349-27.66-6.459-4.043-14.214-4.607-21.636-4.128-16.876,1.086-23.919,15.305-23.937,30.813Zm186.8-519.4a134.72,134.72,0,0,0-57.18-12.134h-.2l-.2-.025a9.15,9.15,0,0,0-1.006.006l-.074.006c-28.041.233-54.229,7.288-78.062,21.722,1.865,1.35,3.754,2.675,5.668,3.945A107.051,107.051,0,0,0,711.065,765.3c11.03-7.116,26.857-19.416,28.544-32.813a6.317,6.317,0,0,1,4.8-5.411,4.248,4.248,0,0,1,1.613-.172,6.117,6.117,0,0,1,5.368,2.938,181.121,181.121,0,0,0,21.7,27.8,108.417,108.417,0,0,0,11.189-6.024A112.378,112.378,0,0,0,804.518,735.9m-47.665,45.837a9.536,9.536,0,1,0-9.533,9.539,9.553,9.553,0,0,0,9.533-9.539M656.51,810.343c3.227-2.429,6.49-4.791,9.846-7.03a118.465,118.465,0,0,1,26.728-13.306c-.8-.178-1.595-.325-2.386-.429a6.4,6.4,0,0,1-1.9-12.152c1.012-.583,2.914-1.362,3.779-1.779.963-.466,1.914-.938,2.865-1.423a119.721,119.721,0,0,1-29.1-14.115c-3.362-2.221-6.632-4.57-9.84-7.012a176.4,176.4,0,0,0-30.182,28.544,174.834,174.834,0,0,0,30.182,28.7m11.33,7.552c24.225,14.723,50.972,21.759,79.473,21.808a135.435,135.435,0,0,0,57.223-12.134,111.676,111.676,0,0,0-20.195-15.76c-3.086-1.871-6.263-3.552-9.484-5.172-8.441,6.183-18.551,15.238-21.36,25.237a6.336,6.336,0,0,1-5.11,4.57,5.191,5.191,0,0,1-1.135.123,6.524,6.524,0,0,1-5.282-2.932c-.724-.938-1.478-2.239-2.147-3.214-1.791-2.6-3.662-5.147-5.589-7.644a137.363,137.363,0,0,0-18.962-20.36c-1.675-1.435-3.386-2.8-5.165-4.1A108.328,108.328,0,0,0,673.491,814q-2.871,1.877-5.65,3.9m137.83-28.8c-2.294,1.123-4.693,2.116-7.006,3.276-3.907,1.926-7.754,3.994-11.5,6.208,1.313.73,2.607,1.491,3.859,2.294a128.677,128.677,0,0,1,25.55,20.434c17.134-10.122,31.783-23.826,43.917-39.549-12.152-15.735-26.826-29.452-44-39.562a131.039,131.039,0,0,1-25.458,20.367c-2.614,1.589-5.294,3.067-8.012,4.448,5.693,4.693,13.367,9.8,20.14,9.791a6.469,6.469,0,0,1,6.276,5.073l.012.08.012.074a7.435,7.435,0,0,1,.111,1.037l.012.153-.006.147a6.513,6.513,0,0,1-3.908,5.73m99.318,48.125c14.815-21.557,36.053-44.647,60.155-55.505-24.121-10.852-45.328-33.955-60.137-55.517a238.8,238.8,0,0,1-28.66,55.524,238.319,238.319,0,0,1,28.642,55.5" transform="translate(-173.342 999.75) rotate(-90)" fill="#fff" fill-rule="evenodd"/>
</svg>
